<svg width="20" height="20" viewBox="0 0 20 20" fill="none" xmlns="http://www.w3.org/2000/svg">
<path d="M11.8584 1.6811C12.6892 1.68112 13.3632 2.35513 13.3632 3.18598V8.02778C13.3634 7.27697 14.121 6.76325 14.8183 7.04145L19.332 8.84516C19.7354 9.00635 20 9.39712 20 9.83149V14.8676C19.9997 17.7021 17.7017 20.0004 14.8672 20.0004H13.9824C11.9297 20.0004 10.2656 18.3354 10.2656 16.2827V3.18598C10.2656 2.35524 10.9388 1.68131 11.7695 1.6811H11.8584Z" fill="white"/>
<path d="M6.2734 10.4643C6.61152 10.1847 7.087 10.1414 7.46969 10.3559L9.36911 11.4213C9.70393 11.6092 9.91093 11.9632 9.9111 12.3471V15.5219C9.91097 16.4757 8.75104 16.9457 8.08688 16.2612L4.95993 13.0375C4.52855 12.5929 4.56767 11.8749 5.04489 11.4799L6.2734 10.4643Z" fill="white"/>
<path d="M5.68551 7.64106C5.72811 7.48285 5.95249 7.48285 5.99508 7.64106L6.19528 8.38227C6.21024 8.43726 6.25351 8.48073 6.30856 8.49555L7.04977 8.69477C7.20751 8.73759 7.20754 8.96157 7.04977 9.00434L6.30856 9.20356C6.25346 9.2184 6.2102 9.26178 6.19528 9.31684L5.99508 10.0581C5.95246 10.2162 5.72814 10.2162 5.68551 10.0581L5.48629 9.31684C5.47139 9.26177 5.42811 9.21841 5.37301 9.20356L4.6318 9.00434C4.47372 8.9617 4.47373 8.73744 4.6318 8.69477L5.37301 8.49555C5.42808 8.48072 5.47136 8.43729 5.48629 8.38227L5.68551 7.64106Z" fill="white"/>
<path d="M3.32223 1.66352C3.44294 1.21529 4.07947 1.21527 4.20016 1.66352L4.76559 3.76411C4.80782 3.92021 4.92973 4.04237 5.0859 4.08442L7.18551 4.64985C7.63372 4.77057 7.63373 5.4061 7.18551 5.5268L5.0859 6.09223C4.92956 6.13433 4.80769 6.25718 4.76559 6.41352L4.20016 8.51313C4.07945 8.96133 3.44296 8.96132 3.32223 8.51313L2.7568 6.41352C2.71472 6.25722 2.59278 6.13436 2.43649 6.09223L0.335903 5.5268C-0.111948 5.40592 -0.111987 4.77069 0.335903 4.64985L2.43649 4.08442C2.59262 4.04232 2.71461 3.92021 2.7568 3.76411L3.32223 1.66352Z" fill="white"/>
<path d="M5.68551 0.118601C5.7281 -0.0395702 5.95241 -0.0394975 5.99508 0.118601L6.19528 0.859812C6.21016 0.914953 6.25341 0.958244 6.30856 0.973094L7.04977 1.17231C7.20756 1.21506 7.20748 1.43904 7.04977 1.48188L6.30856 1.68208C6.25338 1.69694 6.21014 1.74018 6.19528 1.79536L5.99508 2.53657C5.95216 2.69413 5.7283 2.69425 5.68551 2.53657L5.48629 1.79536C5.47144 1.74019 5.42817 1.69695 5.37301 1.68208L4.6318 1.48188C4.47377 1.43917 4.47368 1.21491 4.6318 1.17231L5.37301 0.973094C5.42817 0.958235 5.47143 0.914969 5.48629 0.859812L5.68551 0.118601Z" fill="white"/>
</svg>
