<svg width="20" height="20" viewBox="0 0 20 20" fill="none" xmlns="http://www.w3.org/2000/svg">
<path d="M5.31384 18.0977C5.31399 18.4645 5.61201 18.7617 5.97888 18.7617H11.1605L3.41345 19.9912C3.05102 20.0487 2.71096 19.8019 2.65368 19.4395L0.00817474 2.69922C-0.0488589 2.3369 0.198615 1.99697 0.560909 1.93945L5.31384 1.18457V18.0977Z" fill="white"/>
<path fill-rule="evenodd" clip-rule="evenodd" d="M14.2728 0C14.6397 0 14.9377 0.297275 14.9379 0.664062V5.21094C14.9379 5.5779 15.235 5.875 15.6019 5.875H19.3353C19.7023 5.875 19.9994 6.17307 19.9994 6.54004V17.0664C19.9992 17.4333 19.7022 17.7305 19.3353 17.7305H6.974C6.60724 17.7303 6.31007 17.4332 6.30993 17.0664V0.664062C6.31014 0.29736 6.60728 0.000137926 6.974 0H14.2728ZM8.70153 11.4648C8.42637 11.4608 8.2 11.6809 8.19567 11.9561C8.19149 12.2311 8.41081 12.4578 8.68591 12.4619L17.5931 12.5938C17.8682 12.5978 18.0955 12.3785 18.1 12.1035C18.1043 11.8283 17.8839 11.6018 17.6088 11.5977L8.70153 11.4648ZM8.70153 7.86914C8.42641 7.86507 8.20007 8.08426 8.19567 8.35938C8.19135 8.63456 8.41072 8.86113 8.68591 8.86523L17.5931 8.99805C17.8683 9.00214 18.0956 8.78203 18.1 8.50684C18.1043 8.23167 17.8839 8.00507 17.6088 8.00098L8.70153 7.86914Z" fill="white"/>
<path d="M15.9349 1.8252C15.9349 1.20503 16.7089 0.922722 17.1078 1.39746L19.0668 3.73145C19.4297 4.16378 19.1224 4.82324 18.558 4.82324H16.599C16.2321 4.82324 15.935 4.52609 15.9349 4.15918V1.8252Z" fill="white"/>
</svg>
