<svg width="20" height="20" viewBox="0 0 20 20" fill="none" xmlns="http://www.w3.org/2000/svg">
<path d="M1.46191 15.1494C2.19579 15.1495 2.79102 15.7446 2.79102 16.4785V18.6709C2.79102 19.4048 2.19579 19.9999 1.46191 20H1.3291C0.595168 20 0 19.4048 0 18.6709V16.4785C7.27831e-08 15.7446 0.595168 15.1494 1.3291 15.1494H1.46191Z" fill="white"/>
<path d="M5.78027 5.54785C6.51417 5.54785 7.10931 6.14308 7.10938 6.87695V18.6709C7.10937 19.4048 6.51421 20 5.78027 20H5.64746C4.9137 19.9998 4.31934 19.4047 4.31934 18.6709V6.87695C4.3194 6.1432 4.91374 5.54806 5.64746 5.54785H5.78027Z" fill="white"/>
<path d="M10.0996 11.8271C10.8335 11.8271 11.4287 12.4223 11.4287 13.1562V18.6709C11.4287 19.4048 10.8335 20 10.0996 20H9.90039C9.16646 20 8.57129 19.4048 8.57129 18.6709V13.1562C8.57129 12.4223 9.16646 11.8271 9.90039 11.8271H10.0996Z" fill="white"/>
<path d="M14.3525 6.77734C15.0863 6.77755 15.6807 7.37264 15.6807 8.10645V18.6709C15.6807 19.4047 15.0863 19.9998 14.3525 20H14.2197C13.4858 20 12.8906 19.4048 12.8906 18.6709V8.10645C12.8906 7.37251 13.4858 6.77734 14.2197 6.77734H14.3525Z" fill="white"/>
<path d="M18.6709 0C19.4048 0 20 0.595168 20 1.3291V18.6709C20 19.4048 19.4048 20 18.6709 20H18.5381C17.8042 19.9999 17.209 19.4048 17.209 18.6709V1.3291C17.209 0.595208 17.8042 6.43551e-05 18.5381 0H18.6709Z" fill="white"/>
</svg>
