<svg width="20" height="20" viewBox="0 0 20 20" fill="none" xmlns="http://www.w3.org/2000/svg">
<path d="M18.9661 7.45682L15.5289 3.30075C15.1769 2.88967 14.616 2.90147 14.276 3.32712C13.9443 3.74231 13.9443 4.40059 14.276 4.81578L17.7132 8.97186C17.8153 9.09777 17.9045 9.23809 17.979 9.38971C17.9657 9.38971 17.9551 9.38113 17.9418 9.38113L4.04428 9.41543C3.55491 9.41543 3.1582 9.89511 3.1582 10.4868C3.1582 11.0786 3.55491 11.5583 4.04428 11.5583L17.9365 11.524C17.9613 11.524 17.9816 11.5089 18.0056 11.5068C17.927 11.6881 17.8273 11.8548 17.7096 12.0018L14.2725 16.1579C13.9205 16.569 13.9107 17.2472 14.2507 17.6729C14.5906 18.0985 15.1516 18.1103 15.5036 17.6993C15.511 17.6906 15.5183 17.6818 15.5254 17.6729L18.9626 13.5168C20.3462 11.8432 20.3462 9.13036 18.9626 7.45682H18.9661Z" fill="white"/>
<path d="M6.14034 18.3333H4.38594C2.93257 18.3333 1.75436 17.214 1.75436 15.8333V4.16668C1.75436 2.78598 2.93257 1.66668 4.38594 1.66668H6.14034C6.62479 1.66668 7.01752 1.29359 7.01752 0.833359C7.01752 0.373125 6.62484 0 6.14034 0H4.38594C1.96488 0.00277344 0.00291941 1.86664 0 4.16668V15.8334C0.00291941 18.1334 1.96488 19.9973 4.38598 20H6.14038C6.62484 20 7.01756 19.6269 7.01756 19.1667C7.01756 18.7064 6.62484 18.3333 6.14034 18.3333Z" fill="white"/>
</svg>
