<svg width="20" height="20" viewBox="0 0 20 20" fill="none" xmlns="http://www.w3.org/2000/svg">
<path d="M6.95508 0.0332031C8.5083 0.0332067 9.76758 1.29478 9.76758 2.85059V16.708C9.76737 18.5262 8.29564 20 6.48047 20C5.10074 20 3.86766 19.1367 3.39355 17.8389L2.94824 16.6182L2.92285 16.6113C1.19831 16.1447 2.46356e-06 14.5774 0 12.7881V11.9443C0.000206782 10.617 0.845892 9.47705 2.04004 9.05566C1.75086 8.55943 1.59473 7.99077 1.59473 7.40625V7.15625C1.59475 5.55633 2.57681 4.12131 4.06641 3.54395L4.16992 3.50391L4.14551 2.98047C4.07141 1.3753 5.35085 0.0332047 6.95508 0.0332031Z" fill="white"/>
<path d="M13.0449 0C14.6492 1.55498e-06 15.9286 1.34206 15.8545 2.94727L15.8301 3.4707L15.9336 3.50977C17.4234 4.08706 18.4053 5.523 18.4053 7.12305V7.37305C18.4053 7.95759 18.2492 8.52622 17.96 9.02246C19.1541 9.44386 19.9998 10.5838 20 11.9111V12.7549C20 14.5442 18.8017 16.1115 17.0771 16.5781L17.0518 16.585L16.6064 17.8057C16.1323 19.1035 14.8993 19.9668 13.5195 19.9668C11.7044 19.9668 10.2327 18.4929 10.2324 16.6748V2.81738C10.2324 1.26158 11.4917 3.25354e-06 13.0449 0Z" fill="white"/>
</svg>
