<svg width="20" height="20" viewBox="0 0 20 20" fill="none" xmlns="http://www.w3.org/2000/svg">
<path fill-rule="evenodd" clip-rule="evenodd" d="M5.63086 13.333C7.22322 13.333 8.55478 14.4464 8.88867 15.9355C8.88755 15.9306 8.88688 15.9249 8.88574 15.9199H19.2529C19.6656 15.9202 20 16.255 20 16.667C19.9998 17.0788 19.6655 17.4128 19.2529 17.4131H8.88574C8.88818 17.4025 8.89025 17.3915 8.89258 17.3809C8.56503 18.8785 7.22926 20 5.63086 20C4.02325 19.9998 2.68179 18.8652 2.36426 17.3545C2.36836 17.374 2.37154 17.3937 2.37598 17.4131H0.74707C0.334543 17.4128 0.000175971 17.0788 0 16.667C0 16.255 0.334434 15.9202 0.74707 15.9199H2.37598C2.37207 15.937 2.36887 15.9545 2.36523 15.9717C2.68545 14.4645 4.02576 13.3332 5.63086 13.333ZM5.63086 14.832C4.61619 14.8322 3.79395 15.654 3.79395 16.667C3.79412 17.6799 4.6163 18.5008 5.63086 18.501C6.64559 18.501 7.46857 17.68 7.46875 16.667C7.46875 15.6538 6.6457 14.832 5.63086 14.832Z" fill="white"/>
<path fill-rule="evenodd" clip-rule="evenodd" d="M14.9668 6.66699C16.5591 6.667 17.8906 7.7795 18.2246 9.26855C18.2235 9.2637 18.2228 9.25876 18.2217 9.25391H19.2529C19.6656 9.25414 20 9.58799 20 10C20 10.412 19.6656 10.7459 19.2529 10.7461H18.2217C18.2241 10.7354 18.2262 10.7246 18.2285 10.7139C17.9011 12.2117 16.5653 13.333 14.9668 13.333C13.3683 13.333 12.0325 12.2117 11.7051 10.7139C11.7074 10.7246 11.7095 10.7354 11.7119 10.7461H0.74707C0.334434 10.7459 0 10.412 0 10C7.66053e-08 9.58799 0.334434 9.25414 0.74707 9.25391H11.7119C11.7108 9.25876 11.7101 9.2637 11.709 9.26855C12.043 7.7795 13.3745 6.66699 14.9668 6.66699ZM14.9668 8.16504C13.952 8.16504 13.1289 8.98685 13.1289 10C13.1289 11.0132 13.952 11.835 14.9668 11.835C15.9816 11.835 16.8047 11.0131 16.8047 10C16.8047 8.98685 15.9816 8.16505 14.9668 8.16504Z" fill="white"/>
<path fill-rule="evenodd" clip-rule="evenodd" d="M5.63086 0C7.22333 0 8.55489 1.11321 8.88867 2.60254C8.88753 2.59744 8.88691 2.592 8.88574 2.58691H19.2529C19.6655 2.58715 19.9998 2.92115 20 3.33301C20 3.74501 19.6656 4.07984 19.2529 4.08008H8.88574C8.88815 4.06956 8.89027 4.05841 8.89258 4.04785C8.56491 5.54537 7.22915 6.66699 5.63086 6.66699C4.02303 6.66682 2.68155 5.53157 2.36426 4.02051C2.3684 4.04021 2.37149 4.0605 2.37598 4.08008H0.74707C0.334434 4.07984 0 3.74501 0 3.33301C0.000176125 2.92115 0.334543 2.58715 0.74707 2.58691H2.37598C2.37249 2.60213 2.36949 2.61752 2.36621 2.63281C2.68852 1.12833 4.02771 0.000173357 5.63086 0ZM5.63086 1.49902C4.6163 1.49922 3.79412 2.32013 3.79395 3.33301C3.79395 4.34604 4.61619 5.16777 5.63086 5.16797C6.6457 5.16797 7.46875 4.34616 7.46875 3.33301C7.46857 2.32 6.64559 1.49902 5.63086 1.49902ZM8.96094 3.56152C8.96178 3.54914 8.96414 3.53684 8.96484 3.52441L8.96582 3.50488C8.96486 3.52384 8.96222 3.54265 8.96094 3.56152Z" fill="white"/>
</svg>
