<svg width="20" height="20" viewBox="0 0 20 20" fill="none" xmlns="http://www.w3.org/2000/svg">
<path d="M10 8.56577C10.9914 8.56581 11.7949 9.38593 11.7949 10.3968C11.7948 11.4076 10.9913 12.2268 10 12.2269C9.00866 12.2269 8.20429 11.4076 8.20411 10.3968C8.20413 9.38591 9.00856 8.56579 10 8.56577Z" fill="white"/>
<path fill-rule="evenodd" clip-rule="evenodd" d="M7.82228 1.73178C8.39054 -0.577284 11.6094 -0.577237 12.1777 1.73178C12.5189 3.11865 14.01 3.85185 15.2861 3.25912C17.4112 2.27201 19.4187 4.83799 18.002 6.7308C17.1511 7.86753 17.5192 9.51282 18.7695 10.1605C20.8508 11.2394 20.1344 14.4389 17.7998 14.4896C16.3978 14.5201 15.3665 15.8391 15.6494 17.2396C16.1202 19.5715 13.2202 20.9954 11.7256 19.1664C10.8281 18.0676 9.17298 18.0677 8.2754 19.1664C6.78082 20.9959 3.88062 19.5717 4.35157 17.2396C4.63443 15.8391 3.60225 14.5201 2.20021 14.4896C-0.134431 14.439 -0.850817 11.2394 1.23048 10.1605C2.48063 9.51287 2.84947 7.86749 1.99903 6.7308C0.58211 4.83798 2.58874 2.27202 4.71388 3.25912C5.99002 3.8518 7.48117 3.11868 7.82228 1.73178ZM10 5.95151C7.59226 5.95158 5.64076 7.94183 5.64064 10.3968C5.64092 12.8517 7.59236 14.8421 10 14.8421C12.4076 14.842 14.3601 12.8517 14.3604 10.3968C14.3602 7.94185 12.4077 5.9516 10 5.95151Z" fill="white"/>
</svg>
