<svg width="20" height="20" viewBox="0 0 20 20" fill="none" xmlns="http://www.w3.org/2000/svg">
<path d="M13.0029 13.0265C13.604 12.4274 14.5786 12.4274 15.1797 13.0265L19.5488 17.381C20.1499 17.9801 20.1499 18.9518 19.5488 19.5509C18.9477 20.1498 17.9731 20.1499 17.3721 19.5509L13.0029 15.1954C12.402 14.5963 12.4019 13.6255 13.0029 13.0265Z" fill="white"/>
<path d="M8.31348 0.00596015C9.75594 0.0631773 11.1488 0.545528 12.3164 1.3917C13.4841 2.23805 14.3739 3.41058 14.873 4.76084C15.3721 6.11108 15.4587 7.57858 15.1211 8.97764C14.7834 10.3767 14.0371 11.6449 12.9766 12.6212C11.9159 13.5975 10.5882 14.2385 9.16211 14.463C7.73598 14.6875 6.27479 14.4859 4.96387 13.8829C4.7673 13.7925 4.57537 13.6929 4.38867 13.586C2.64217 12.5866 3.19428 10.222 4.91211 9.17393C6.57401 8.15992 7.13402 6.02425 6.21094 4.33506L6.02344 4.01084C5.10364 2.31626 5.71209 0.106482 7.65625 0.00888984C7.8744 -0.00204965 8.09398 -0.00273382 8.31348 0.00596015Z" fill="white"/>
<path fill-rule="evenodd" clip-rule="evenodd" d="M2.99707 2.29698C4.65251 2.29698 5.99511 3.63435 5.99512 5.28428C5.99509 6.46435 4.46119 8.49751 3.58789 9.55967C3.27838 9.93574 2.71562 9.93595 2.40625 9.55967C1.53294 8.4975 2.30531e-05 6.46433 0 5.28428C5.70523e-06 3.63448 1.3418 2.29717 2.99707 2.29698ZM2.95801 3.79502C2.29777 3.79514 1.7629 4.32755 1.7627 4.98448C1.7627 5.64157 2.29765 6.17478 2.95801 6.17491C3.61846 6.1749 4.15429 5.64164 4.1543 4.98448C4.15409 4.32748 3.61834 3.79503 2.95801 3.79502Z" fill="white"/>
</svg>
