<svg width="19" height="14" viewBox="0 0 19 14" fill="none" xmlns="http://www.w3.org/2000/svg">
<path d="M17.5 11.75C17.9142 11.75 18.25 12.0858 18.25 12.5C18.25 12.9142 17.9142 13.25 17.5 13.25H2C1.58579 13.25 1.25 12.9142 1.25 12.5C1.25 12.0858 1.58579 11.75 2 11.75H17.5ZM16 5.75C16.4142 5.75 16.75 6.08579 16.75 6.5C16.75 6.91421 16.4142 7.25 16 7.25H3C2.58579 7.25 2.25 6.91421 2.25 6.5C2.25 6.08579 2.58579 5.75 3 5.75H16ZM18.25 0C18.6642 0 19 0.335786 19 0.75C19 1.16421 18.6642 1.5 18.25 1.5H0.75C0.335786 1.5 0 1.16421 0 0.75C0 0.335786 0.335786 0 0.75 0H18.25Z" fill="black"/>
</svg>
