<svg width="19" height="14" viewBox="0 0 19 14" fill="none" xmlns="http://www.w3.org/2000/svg">
<path d="M18 11.75C18.4142 11.75 18.75 12.0858 18.75 12.5C18.75 12.9142 18.4142 13.25 18 13.25H5C4.58579 13.25 4.25 12.9142 4.25 12.5C4.25 12.0858 4.58579 11.75 5 11.75H18ZM18 5.75C18.4142 5.75 18.75 6.08579 18.75 6.5C18.75 6.91421 18.4142 7.25 18 7.25H2C1.58579 7.25 1.25 6.91421 1.25 6.5C1.25 6.08579 1.58579 5.75 2 5.75H18ZM18.25 0C18.6642 0 19 0.335786 19 0.75C19 1.16421 18.6642 1.5 18.25 1.5H0.75C0.335786 1.5 0 1.16421 0 0.75C0 0.335786 0.335786 0 0.75 0H18.25Z" fill="black"/>
</svg>
