<svg width="11" height="15" viewBox="0 0 11 15" fill="none" xmlns="http://www.w3.org/2000/svg">
<path d="M-0.000355005 14.5454V-4.48227e-05H5.08487C6.09813 -4.48227e-05 6.93383 0.175145 7.59197 0.525524C8.25012 0.871167 8.74018 1.33755 9.06214 1.92467C9.38411 2.50706 9.5451 3.15336 9.5451 3.86359C9.5451 4.48859 9.43383 5.00469 9.21129 5.41189C8.99349 5.81908 8.70466 6.14105 8.34482 6.3778C7.9897 6.61454 7.60381 6.78973 7.18714 6.90336V7.04541C7.63222 7.07382 8.07966 7.23007 8.52947 7.51416C8.97929 7.79825 9.35571 8.20545 9.65874 8.73575C9.96177 9.26605 10.1133 9.91473 10.1133 10.6818C10.1133 11.4109 9.94756 12.0667 9.61612 12.6491C9.28468 13.2315 8.76148 13.6931 8.04652 14.034C7.33156 14.375 6.40116 14.5454 5.25533 14.5454H-0.000355005ZM1.76101 12.9829H5.25533C6.4059 12.9829 7.22266 12.7604 7.70561 12.3153C8.1933 11.8655 8.43714 11.321 8.43714 10.6818C8.43714 10.1893 8.31167 9.7348 8.06072 9.31814C7.80978 8.89674 7.4523 8.56056 6.98828 8.30961C6.52427 8.05393 5.97502 7.92609 5.34055 7.92609H1.76101V12.9829ZM1.76101 6.392H5.02805C5.55836 6.392 6.03658 6.28783 6.46271 6.0795C6.89358 5.87117 7.23449 5.57761 7.48544 5.19882C7.74112 4.82003 7.86896 4.37496 7.86896 3.86359C7.86896 3.22439 7.64643 2.68225 7.20135 2.23717C6.75627 1.78736 6.05078 1.56246 5.08487 1.56246H1.76101V6.392Z" fill="#0E1116"/>
</svg>
