<svg width="18" height="14" viewBox="0 0 18 14" fill="none" xmlns="http://www.w3.org/2000/svg">
<path d="M0.75 12C1.16421 12 1.5 12.3358 1.5 12.75C1.5 13.1642 1.16421 13.5 0.75 13.5C0.335786 13.5 0 13.1642 0 12.75C0 12.3358 0.335786 12 0.75 12Z" fill="black"/>
<path d="M17.25 12C17.6642 12 18 12.3358 18 12.75C18 13.1642 17.6642 13.5 17.25 13.5H3.75C3.33579 13.5 3 13.1642 3 12.75C3 12.3358 3.33579 12 3.75 12H17.25Z" fill="black"/>
<path d="M0.75 6C1.16421 6 1.5 6.33579 1.5 6.75C1.5 7.16421 1.16421 7.5 0.75 7.5C0.335786 7.5 0 7.16421 0 6.75C0 6.33579 0.335786 6 0.75 6Z" fill="black"/>
<path d="M17.25 6C17.6642 6 18 6.33579 18 6.75C18 7.16421 17.6642 7.5 17.25 7.5H3.75C3.33579 7.5 3 7.16421 3 6.75C3 6.33579 3.33579 6 3.75 6H17.25Z" fill="black"/>
<path d="M0.75 0C1.16421 0 1.5 0.335786 1.5 0.75C1.5 1.16421 1.16421 1.5 0.75 1.5C0.335786 1.5 0 1.16421 0 0.75C0 0.335786 0.335786 0 0.75 0Z" fill="black"/>
<path d="M17.25 0C17.6642 0 18 0.335786 18 0.75C18 1.16421 17.6642 1.5 17.25 1.5H3.75C3.33579 1.5 3 1.16421 3 0.75C3 0.335786 3.33579 0 3.75 0H17.25Z" fill="black"/>
</svg>
