<svg width="19" height="14" viewBox="0 0 19 14" fill="none" xmlns="http://www.w3.org/2000/svg">
<path d="M18 11.75C18.4142 11.75 18.75 12.0858 18.75 12.5C18.75 12.9142 18.4142 13.25 18 13.25H1C0.585786 13.25 0.25 12.9142 0.25 12.5C0.25 12.0858 0.585786 11.75 1 11.75H18ZM18.2354 5.75C18.6495 5.75004 18.9854 6.08581 18.9854 6.5C18.9854 6.91419 18.6495 7.24996 18.2354 7.25H1C0.585786 7.25 0.25 6.91421 0.25 6.5C0.25 6.08579 0.585786 5.75 1 5.75H18.2354ZM18.25 0C18.6642 0 19 0.335786 19 0.75C19 1.16421 18.6642 1.5 18.25 1.5H0.75C0.335786 1.5 0 1.16421 0 0.75C0 0.335786 0.335786 0 0.75 0H18.25Z" fill="black"/>
</svg>
