<svg width="15" height="20" viewBox="0 0 15 20" fill="none" xmlns="http://www.w3.org/2000/svg">
<path d="M11.3068 -4.48227e-05H13.0682V9.63064C13.0682 10.625 12.8338 11.5127 12.3651 12.294C11.901 13.0705 11.2453 13.6837 10.3977 14.1335C9.55019 14.5786 8.55587 14.8011 7.41477 14.8011C6.27367 14.8011 5.27936 14.5786 4.43182 14.1335C3.58428 13.6837 2.92614 13.0705 2.45739 12.294C1.99337 11.5127 1.76136 10.625 1.76136 9.63064V-4.48227e-05H3.52273V9.48859C3.52273 10.1988 3.67898 10.8309 3.99148 11.3849C4.30398 11.9341 4.74905 12.3674 5.3267 12.6846C5.90909 12.9971 6.60511 13.1534 7.41477 13.1534C8.22443 13.1534 8.92045 12.9971 9.50284 12.6846C10.0852 12.3674 10.5303 11.9341 10.8381 11.3849C11.1506 10.8309 11.3068 10.1988 11.3068 9.48859V-4.48227e-05Z" fill="#0E1116"/>
<path d="M0 18.5227H14.8295V19.8863H0V18.5227Z" fill="#0E1116"/>
</svg>
