<svg width="29" height="29" viewBox="0 0 29 29" fill="none" xmlns="http://www.w3.org/2000/svg">
<path d="M14.9145 0C15.372 0.000151511 16.8387 0.495865 16.8387 0.953379V12.4286H28.0645C28.5221 12.4286 28.9999 13.628 29 14.0855C29 14.5431 28.5221 15.7429 28.0645 15.7429H16.8387V28.171C16.8387 28.6285 15.372 28.9998 14.9145 29C14.4569 29 13.0968 28.6286 13.0968 28.171V15.7429H0.935484C0.477877 15.7429 0 14.5431 0 14.0855C0.000109321 13.628 0.477944 12.4286 0.935484 12.4286H13.0968V0.828571C13.0968 0.370964 14.4569 0 14.9145 0Z" fill="#7A8190"/>
</svg>
