<svg width="23" height="23" viewBox="0 0 23 23" fill="none" xmlns="http://www.w3.org/2000/svg">
<path d="M1.19947 0.770991C1.52306 0.447612 2.91072 -0.238997 3.23423 0.0845136L11.3484 8.1987L19.2863 0.260856C19.6098 -0.0626736 20.7958 0.447558 21.1194 0.770992C21.4429 1.09457 21.9534 2.28083 21.6298 2.60441L13.692 10.5423L22.48 19.3303C22.8035 19.6538 22.0289 20.9535 21.7056 21.2771C21.382 21.6007 20.1576 22.2998 19.834 21.9762L11.046 13.1882L2.44669 21.7875C2.12311 22.1111 0.936847 21.6007 0.61327 21.2771C0.289836 20.9535 -0.220396 19.7675 0.103134 19.444L8.70246 10.8446L0.500026 2.64221C0.176449 2.31863 0.875891 1.09457 1.19947 0.770991Z" fill="black"/>
</svg>
