<svg width="20" height="20" viewBox="0 0 20 20" fill="none" xmlns="http://www.w3.org/2000/svg">
<path d="M8 9C8.55228 9 9 9.44772 9 10V16C9 16.5523 8.55228 17 8 17C7.44772 17 7 16.5523 7 16V10C7 9.44772 7.44772 9 8 9Z" fill="#2A2F3A"/>
<path d="M12 9C12.5523 9 13 9.44772 13 10V16C13 16.5523 12.5523 17 12 17C11.4477 17 11 16.5523 11 16V10C11 9.44772 11.4477 9 12 9Z" fill="#2A2F3A"/>
<path fill-rule="evenodd" clip-rule="evenodd" d="M12.2041 0.0107422C13.2128 0.113005 14 0.964349 14 2V3H18L18.2041 3.01074C19.2128 3.113 20 3.96435 20 5V6C20 7.03565 19.2128 7.887 18.2041 7.98926L18 8H17.8574L17.1328 18.1426L17.1094 18.3359C16.9482 19.2873 16.1214 20 15.1377 20H4.8623L4.66797 19.9902C3.77143 19.9036 3.04106 19.224 2.89062 18.3359L2.86719 18.1426L2.14258 8H2C0.96435 8 0.113005 7.21278 0.0107422 6.2041L0 6V5C0 3.89543 0.895431 3 2 3H6V2C6 0.895431 6.89543 0 8 0H12L12.2041 0.0107422ZM4.796 17.0712C4.83336 17.5945 5.26881 18 5.79346 18H14.2065C14.7312 18 15.1666 17.5945 15.204 17.0712L15.7751 9.07121C15.8164 8.49235 15.358 8 14.7776 8H5.22237C4.64204 8 4.18358 8.49235 4.22491 9.07121L4.796 17.0712ZM2 5.5C2 5.77614 2.22386 6 2.5 6H17.5C17.7761 6 18 5.77614 18 5.5C18 5.22386 17.7761 5 17.5 5H2.5C2.22386 5 2 5.22386 2 5.5ZM8 2.5C8 2.77614 8.22386 3 8.5 3H11.5C11.7761 3 12 2.77614 12 2.5C12 2.22386 11.7761 2 11.5 2H8.5C8.22386 2 8 2.22386 8 2.5Z" fill="#2A2F3A"/>
</svg>
