<svg width="22" height="23" viewBox="0 0 22 23" fill="none" xmlns="http://www.w3.org/2000/svg">
<path d="M2.79652 10.0354L0.472264 11.4787C-0.0168988 11.7824 -0.14914 12.4355 0.183314 12.9056L6.67741 22.0889C6.91706 22.4278 7.34115 22.5834 7.74311 22.48L11.1748 21.5968C11.4549 21.5248 11.69 21.335 11.8196 21.0765L21.6588 1.44892C22.027 0.714489 21.4016 -0.125956 20.5923 0.0157728L17.49 0.559114C17.1756 0.614187 16.9063 0.816083 16.7653 1.1025L9.44781 15.9691C9.10086 16.6739 8.11393 16.7218 7.70037 16.0539L4.17428 10.3586C3.88329 9.88854 3.26614 9.7438 2.79652 10.0354Z" fill="black"/>
</svg>
