<svg width="20" height="20" viewBox="0 0 20 20" fill="none" xmlns="http://www.w3.org/2000/svg">
<path fill-rule="evenodd" clip-rule="evenodd" d="M13.7778 0.709742C14.7242 -0.236592 16.259 -0.236569 17.2054 0.709742L19.2903 2.79547C20.2365 3.74186 20.2366 5.27594 19.2903 6.22226L6.98575 18.5268C6.68466 18.8279 6.30928 19.0447 5.89792 19.1547L3.05173 19.9152C1.25059 20.3968 -0.396841 18.7494 0.0848417 16.9483L0.845299 14.1021C0.941576 13.7423 1.11975 13.4101 1.36437 13.131L1.47323 13.0143L13.7778 0.709742ZM2.61549 14.1573C2.51537 14.2576 2.4431 14.3826 2.40644 14.5194L1.6452 17.3656C1.48472 17.966 2.03407 18.5154 2.63442 18.3548L5.48062 17.5944C5.58354 17.5669 5.67983 17.5184 5.76382 17.454L5.84349 17.3845L14.2398 8.98749C14.6303 8.59696 14.6303 7.96381 14.2398 7.5733L12.4268 5.76028C12.0363 5.36976 11.4031 5.36976 11.0126 5.76028L2.61549 14.1573ZM16.0016 1.79678C15.6843 1.53815 15.2158 1.5571 14.9201 1.85279L13.5691 3.20381C13.1785 3.59433 13.1785 4.2275 13.5691 4.61802L15.3822 6.43115C15.7727 6.82162 16.4057 6.82168 16.7963 6.43128L18.1481 5.08C18.4437 4.7843 18.4627 4.31574 18.2041 3.99848L18.1481 3.93773L16.0631 1.85279L16.0016 1.79678Z" fill="#2A2F3A"/>
</svg>
