<svg width="40" height="40" viewBox="0 0 40 40" fill="none" xmlns="http://www.w3.org/2000/svg">
<mask id="path-1-inside-1_444_157" fill="white">
<path d="M20 0C31.0457 0 40 8.95431 40 20C40 31.0457 31.0457 40 20 40C8.95431 40 0 31.0457 0 20C0 8.95431 8.95431 0 20 0ZM29.4639 9.43262C29.1297 8.94047 28.4426 8.84724 27.9893 9.23242L20.6211 15.4922C20.1866 15.8613 19.5317 15.7935 19.1826 15.3428L15.4678 10.5459C15.4254 10.4912 15.3779 10.4403 15.3252 10.3955L15.2236 10.3096C14.9069 10.0404 14.4566 9.99538 14.0928 10.1963L11.9795 11.3633C11.5194 11.6176 11.3353 12.1847 11.5576 12.6611L14.9424 19.9141C15.1148 20.2834 15.0454 20.7213 14.7676 21.0195L9.14941 27.0498C8.7903 27.4353 8.79117 28.0334 9.15234 28.417L11.8115 31.2402C11.9612 31.399 12.1695 31.4891 12.3877 31.4893C12.6192 31.4893 12.8397 31.3878 12.9902 31.2119L17.6719 25.7432C18.0634 25.2858 18.7672 25.275 19.1719 25.7207L22.5527 29.4453C22.9066 29.835 23.5026 29.8837 23.915 29.5566L27.6338 26.6064C28.0917 26.2433 28.1424 25.5664 27.7432 25.1396L23.7002 20.8184C23.3182 20.41 23.3457 19.7673 23.7607 19.3926L30.8428 12.999C31.2133 12.6645 31.2803 12.1083 31 11.6953L29.4639 9.43262Z"/>
</mask>
<path d="M20 0C31.0457 0 40 8.95431 40 20C40 31.0457 31.0457 40 20 40C8.95431 40 0 31.0457 0 20C0 8.95431 8.95431 0 20 0ZM29.4639 9.43262C29.1297 8.94047 28.4426 8.84724 27.9893 9.23242L20.6211 15.4922C20.1866 15.8613 19.5317 15.7935 19.1826 15.3428L15.4678 10.5459C15.4254 10.4912 15.3779 10.4403 15.3252 10.3955L15.2236 10.3096C14.9069 10.0404 14.4566 9.99538 14.0928 10.1963L11.9795 11.3633C11.5194 11.6176 11.3353 12.1847 11.5576 12.6611L14.9424 19.9141C15.1148 20.2834 15.0454 20.7213 14.7676 21.0195L9.14941 27.0498C8.7903 27.4353 8.79117 28.0334 9.15234 28.417L11.8115 31.2402C11.9612 31.399 12.1695 31.4891 12.3877 31.4893C12.6192 31.4893 12.8397 31.3878 12.9902 31.2119L17.6719 25.7432C18.0634 25.2858 18.7672 25.275 19.1719 25.7207L22.5527 29.4453C22.9066 29.835 23.5026 29.8837 23.915 29.5566L27.6338 26.6064C28.0917 26.2433 28.1424 25.5664 27.7432 25.1396L23.7002 20.8184C23.3182 20.41 23.3457 19.7673 23.7607 19.3926L30.8428 12.999C31.2133 12.6645 31.2803 12.1083 31 11.6953L29.4639 9.43262Z" fill="#DD0000" fill-opacity="0.2"/>
<path d="M29.4639 9.43262L30.2912 8.87093L30.2912 8.87088L29.4639 9.43262ZM27.9893 9.23242L28.6367 9.99452L28.6368 9.99448L27.9893 9.23242ZM20.6211 15.4922L19.9736 14.7301L19.9736 14.7301L20.6211 15.4922ZM19.1826 15.3428L19.9733 14.7305L19.9733 14.7305L19.1826 15.3428ZM15.4678 10.5459L14.6771 11.1581L14.6771 11.1582L15.4678 10.5459ZM15.3252 10.3955L15.9728 9.63356L15.9711 9.63212L15.3252 10.3955ZM15.2236 10.3096L14.5761 11.0716L14.5777 11.073L15.2236 10.3096ZM14.0928 10.1963L13.6094 9.32086L13.6094 9.32089L14.0928 10.1963ZM11.9795 11.3633L11.4961 10.4879L11.4957 10.4881L11.9795 11.3633ZM11.5576 12.6611L12.4638 12.2382L12.4638 12.2382L11.5576 12.6611ZM14.9424 19.9141L14.0362 20.337L14.0362 20.337L14.9424 19.9141ZM14.7676 21.0195L14.0359 20.3378L14.0359 20.3379L14.7676 21.0195ZM9.14941 27.0498L8.41775 26.3681L8.41771 26.3682L9.14941 27.0498ZM9.15234 28.417L8.42428 29.1025L8.4244 29.1026L9.15234 28.417ZM11.8115 31.2402L11.0836 31.9259L11.0837 31.926L11.8115 31.2402ZM12.3877 31.4893L12.3872 32.4893H12.3877V31.4893ZM12.9902 31.2119L12.2306 30.5616L12.2305 30.5616L12.9902 31.2119ZM17.6719 25.7432L18.4315 26.3935L18.4316 26.3934L17.6719 25.7432ZM19.1719 25.7207L19.9123 25.0486L19.9122 25.0485L19.1719 25.7207ZM22.5527 29.4453L21.8123 30.1174L21.8124 30.1176L22.5527 29.4453ZM23.915 29.5566L24.5364 30.3402L24.5365 30.3401L23.915 29.5566ZM27.6338 26.6064L27.0124 25.8229L27.0123 25.823L27.6338 26.6064ZM27.7432 25.1396L28.4734 24.4565L28.4734 24.4564L27.7432 25.1396ZM23.7002 20.8184L22.9698 21.5014L22.97 21.5016L23.7002 20.8184ZM23.7607 19.3926L24.4308 20.1348L24.4308 20.1348L23.7607 19.3926ZM30.8428 12.999L30.1727 12.2568L30.1727 12.2568L30.8428 12.999ZM31 11.6953L31.8274 11.1337L31.8274 11.1336L31 11.6953ZM20 0V1C30.4934 1 39 9.50659 39 20H40H41C41 8.40202 31.598 -1 20 -1V0ZM40 20H39C39 30.4934 30.4934 39 20 39V40V41C31.598 41 41 31.598 41 20H40ZM20 40V39C9.50659 39 1 30.4934 1 20H0H-1C-1 31.598 8.40202 41 20 41V40ZM0 20H1C1 9.50659 9.50659 1 20 1V0V-1C8.40202 -1 -1 8.40202 -1 20H0ZM29.4639 9.43262L30.2912 8.87088C29.6227 7.88643 28.2483 7.70011 27.3418 8.47036L27.9893 9.23242L28.6368 9.99448L28.6366 9.99436L29.4639 9.43262ZM27.9893 9.23242L27.3418 8.47032L19.9736 14.7301L20.6211 15.4922L21.2686 16.2543L28.6367 9.99452L27.9893 9.23242ZM20.6211 15.4922L19.9736 14.7301L19.9733 14.7305L19.1826 15.3428L18.392 15.955C19.0905 16.8571 20.4003 16.992 21.2686 16.2542L20.6211 15.4922ZM19.1826 15.3428L19.9733 14.7305L16.2584 9.93361L15.4678 10.5459L14.6771 11.1582L18.392 15.9551L19.1826 15.3428ZM15.4678 10.5459L16.2585 9.93368C16.1786 9.83051 16.084 9.72808 15.9728 9.63356L15.3252 10.3955L14.6776 11.1575L14.6771 11.1581L15.4678 10.5459ZM15.3252 10.3955L15.9711 9.63212L15.8696 9.54618L15.2236 10.3096L14.5777 11.073L14.6793 11.1589L15.3252 10.3955ZM15.2236 10.3096L15.8711 9.54751C15.2375 9.00911 14.337 8.91914 13.6094 9.32086L14.0928 10.1963L14.5761 11.0717L14.5761 11.0716L15.2236 10.3096ZM14.0928 10.1963L13.6094 9.32089L11.4961 10.4879L11.9795 11.3633L12.4629 12.2387L14.5762 11.0717L14.0928 10.1963ZM11.9795 11.3633L11.4957 10.4881C10.5748 10.9972 10.207 12.1318 10.6514 13.084L11.5576 12.6611L12.4638 12.2382L12.4633 12.2385L11.9795 11.3633ZM11.5576 12.6611L10.6514 13.084L14.0362 20.337L14.9424 19.9141L15.8486 19.4912L12.4638 12.2382L11.5576 12.6611ZM14.9424 19.9141L14.0362 20.337L14.0359 20.3378L14.7676 21.0195L15.4992 21.7012C16.0547 21.105 16.1934 20.2301 15.8485 19.4911L14.9424 19.9141ZM14.7676 21.0195L14.0359 20.3379L8.41775 26.3681L9.14941 27.0498L9.88108 27.7315L15.4992 21.7012L14.7676 21.0195ZM9.14941 27.0498L8.41771 26.3682C7.70037 27.1382 7.70103 28.3343 8.42428 29.1025L9.15234 28.417L9.88041 27.7315L9.88112 27.7314L9.14941 27.0498ZM9.15234 28.417L8.4244 29.1026L11.0836 31.9259L11.8115 31.2402L12.5395 30.5546L9.88029 27.7314L9.15234 28.417ZM11.8115 31.2402L11.0837 31.926C11.422 32.285 11.8934 32.489 12.3872 32.4893L12.3877 31.4893L12.3882 30.4893C12.4456 30.4893 12.5003 30.5131 12.5394 30.5545L11.8115 31.2402ZM12.3877 31.4893V32.4893C12.9113 32.4893 13.4093 32.2601 13.7499 31.8622L12.9902 31.2119L12.2305 30.5616C12.27 30.5155 12.3271 30.4893 12.3877 30.4893V31.4893ZM12.9902 31.2119L13.7499 31.8622L18.4315 26.3935L17.6719 25.7432L16.9122 25.0928L12.2306 30.5616L12.9902 31.2119ZM17.6719 25.7432L18.4316 26.3934L18.4315 26.3929L19.1719 25.7207L19.9122 25.0485C19.1022 24.1563 17.6945 24.1789 16.9122 25.0929L17.6719 25.7432ZM19.1719 25.7207L18.4314 26.3928L21.8123 30.1174L22.5527 29.4453L23.2932 28.7732L19.9123 25.0486L19.1719 25.7207ZM22.5527 29.4453L21.8124 30.1176C22.5201 30.897 23.7115 30.9943 24.5364 30.3402L23.915 29.5566L23.2937 28.7731L23.2931 28.7731L22.5527 29.4453ZM23.915 29.5566L24.5365 30.3401L28.2553 27.3899L27.6338 26.6064L27.0123 25.823L23.2935 28.7732L23.915 29.5566ZM27.6338 26.6064L28.2551 27.39C29.1703 26.6642 29.2725 25.3107 28.4734 24.4565L27.7432 25.1396L27.0129 25.8228L27.0124 25.8229L27.6338 26.6064ZM27.7432 25.1396L28.4734 24.4564L24.4304 20.1352L23.7002 20.8184L22.97 21.5016L27.0129 25.8228L27.7432 25.1396ZM23.7002 20.8184L24.4305 20.1353L24.4308 20.1348L23.7607 19.3926L23.0906 18.6503C22.2609 19.3994 22.2056 20.6843 22.9698 21.5014L23.7002 20.8184ZM23.7607 19.3926L24.4308 20.1348L31.5129 13.7413L30.8428 12.999L30.1727 12.2568L23.0906 18.6503L23.7607 19.3926ZM30.8428 12.999L31.5129 13.7413C32.2539 13.0723 32.388 11.9596 31.8274 11.1337L31 11.6953L30.1726 12.257L30.1727 12.2568L30.8428 12.999ZM31 11.6953L31.8274 11.1336L30.2912 8.87093L29.4639 9.43262L28.6365 9.9943L30.1726 12.257L31 11.6953Z" fill="#DD0000" mask="url(#path-1-inside-1_444_157)"/>
</svg>
