<svg width="41" height="41" viewBox="0 0 41 41" fill="none" xmlns="http://www.w3.org/2000/svg">
<path d="M20.5 0.5C31.5457 0.5 40.5 9.45431 40.5 20.5C40.5 31.5457 31.5457 40.5 20.5 40.5C9.45431 40.5 0.5 31.5457 0.5 20.5C0.5 9.45431 9.45431 0.5 20.5 0.5ZM30.0322 9.35352L26.9307 9.89648C26.6162 9.95156 26.347 10.154 26.2061 10.4404L18.8877 25.3066C18.5407 26.0113 17.5542 26.0594 17.1406 25.3916L13.6143 19.6963C13.3233 19.2264 12.7069 19.0817 12.2373 19.373L9.91211 20.8164C9.42329 21.1203 9.29167 21.7732 9.62402 22.2432L16.1182 31.4268C16.3579 31.7654 16.7818 31.9208 17.1836 31.8174L20.6152 30.9346C20.8952 30.8625 21.1302 30.6725 21.2598 30.4141L31.0996 10.7861C31.4673 10.0518 30.8413 9.21182 30.0322 9.35352Z" fill="#4CA200" fill-opacity="0.2"/>
<path d="M30.0322 9.35352L30.1184 9.84603L30.1185 9.84602L30.0322 9.35352ZM26.9307 9.89648L26.8444 9.40397L26.8444 9.40398L26.9307 9.89648ZM26.2061 10.4404L26.6546 10.6613L26.6547 10.6612L26.2061 10.4404ZM18.8877 25.3066L19.3363 25.5275L19.3363 25.5275L18.8877 25.3066ZM17.1406 25.3916L16.7155 25.6548L16.7155 25.6548L17.1406 25.3916ZM13.6143 19.6963L14.0394 19.4331V19.4331L13.6143 19.6963ZM12.2373 19.373L11.9737 18.9482L11.9736 18.9482L12.2373 19.373ZM9.91211 20.8164L9.64841 20.3916L9.64814 20.3918L9.91211 20.8164ZM9.62402 22.2432L10.0323 21.9545L10.0323 21.9545L9.62402 22.2432ZM16.1182 31.4268L15.7099 31.7154L15.7101 31.7156L16.1182 31.4268ZM17.1836 31.8174L17.059 31.3331L17.059 31.3332L17.1836 31.8174ZM20.6152 30.9346L20.7398 31.4188L20.7399 31.4188L20.6152 30.9346ZM21.2598 30.4141L21.7067 30.6382L21.7067 30.6381L21.2598 30.4141ZM31.0996 10.7861L31.5466 11.0102L31.5467 11.01L31.0996 10.7861ZM20.5 0.5V1C31.2696 1 40 9.73045 40 20.5H40.5H41C41 9.17816 31.8218 0 20.5 0V0.5ZM40.5 20.5H40C40 31.2696 31.2696 40 20.5 40V40.5V41C31.8218 41 41 31.8218 41 20.5H40.5ZM20.5 40.5V40C9.73045 40 1 31.2696 1 20.5H0.5H0C0 31.8218 9.17816 41 20.5 41V40.5ZM0.5 20.5H1C1 9.73045 9.73045 1 20.5 1V0.5V0C9.17816 0 0 9.17816 0 20.5H0.5ZM30.0322 9.35352L29.946 8.86101L26.8444 9.40397L26.9307 9.89648L27.0169 10.389L30.1184 9.84603L30.0322 9.35352ZM26.9307 9.89648L26.8444 9.40398C26.3722 9.48669 25.9687 9.79052 25.7575 10.2196L26.2061 10.4404L26.6547 10.6612C26.7254 10.5175 26.8603 10.4164 27.0169 10.389L26.9307 9.89648ZM26.2061 10.4404L25.7575 10.2196L18.4391 25.0858L18.8877 25.3066L19.3363 25.5275L26.6546 10.6613L26.2061 10.4404ZM18.8877 25.3066L18.4391 25.0858C18.2655 25.4383 17.7724 25.462 17.5657 25.1284L17.1406 25.3916L16.7155 25.6548C17.336 26.6568 18.8159 26.5843 19.3363 25.5275L18.8877 25.3066ZM17.1406 25.3916L17.5657 25.1284L14.0394 19.4331L13.6143 19.6963L13.1891 19.9595L16.7155 25.6548L17.1406 25.3916ZM13.6143 19.6963L14.0394 19.4331C13.603 18.7283 12.6781 18.5111 11.9737 18.9482L12.2373 19.373L12.5009 19.7979C12.7357 19.6523 13.0437 19.7245 13.1891 19.9595L13.6143 19.6963ZM12.2373 19.373L11.9736 18.9482L9.64841 20.3916L9.91211 20.8164L10.1758 21.2412L12.501 19.7979L12.2373 19.373ZM9.91211 20.8164L9.64814 20.3918C8.91456 20.8478 8.71749 21.8272 9.21579 22.5319L9.62402 22.2432L10.0323 21.9545C9.86584 21.7191 9.93203 21.3928 10.1761 21.241L9.91211 20.8164ZM9.62402 22.2432L9.21578 22.5318L15.7099 31.7154L16.1182 31.4268L16.5264 31.1381L10.0323 21.9545L9.62402 22.2432ZM16.1182 31.4268L15.7101 31.7156C16.0696 32.2236 16.7055 32.4567 17.3082 32.3016L17.1836 31.8174L17.059 31.3332C16.858 31.3849 16.6461 31.3071 16.5263 31.1379L16.1182 31.4268ZM17.1836 31.8174L17.3082 32.3016L20.7398 31.4188L20.6152 30.9346L20.4907 30.4503L17.059 31.3331L17.1836 31.8174ZM20.6152 30.9346L20.7399 31.4188C21.1602 31.3106 21.5125 31.0255 21.7067 30.6382L21.2598 30.4141L20.8128 30.19C20.7478 30.3195 20.6302 30.4144 20.4906 30.4503L20.6152 30.9346ZM21.2598 30.4141L21.7067 30.6381L31.5466 11.0102L31.0996 10.7861L30.6526 10.5621L20.8128 30.19L21.2598 30.4141ZM31.0996 10.7861L31.5467 11.01C32.0985 9.90796 31.159 8.64857 29.946 8.86101L30.0322 9.35352L30.1185 9.84602C30.5236 9.77507 30.8361 10.1957 30.6525 10.5623L31.0996 10.7861Z" fill="#4CA200"/>
</svg>
