<svg width="39" height="50" viewBox="0 0 39 50" fill="none" xmlns="http://www.w3.org/2000/svg">
<path d="M29.3115 13.6022C28.2661 13.6022 27.4187 12.7633 27.4187 11.7285V5.14649C27.4187 3.39732 29.6252 2.60207 30.7613 3.94178L36.3429 10.5238C37.3768 11.743 36.5011 13.6022 34.8931 13.6022H29.3115Z" fill="#2A2F3A"/>
<path fill-rule="evenodd" clip-rule="evenodd" d="M22.6853 0C23.7307 0 24.5782 0.838903 24.5782 1.87374V14.6949C24.5782 15.7297 25.4256 16.5686 26.471 16.5686H37.1071C38.1525 16.5686 39 17.4075 39 18.4424V48.1263C39 49.1611 38.1525 50 37.1071 50H1.89287C0.847468 50 2.70056e-08 49.1611 0 48.1263V1.87374C0 0.838905 0.847468 2.99044e-06 1.89287 0H22.6853ZM6.81368 32.3309C6.02971 32.3194 5.38416 32.9392 5.37184 33.7152C5.35955 34.4912 5.9851 35.1296 6.76903 35.1412L32.1446 35.515C32.9286 35.5266 33.5741 34.9068 33.5864 34.1307C33.5987 33.3547 32.9731 32.7163 32.1892 32.7048L6.81368 32.3309ZM6.81368 22.1895C6.02972 22.1779 5.38417 22.7976 5.37184 23.5737C5.35953 24.3497 5.98508 24.9882 6.76903 24.9997L32.1446 25.3736C32.9286 25.3851 33.5741 24.7653 33.5864 23.9893C33.5987 23.2133 32.9732 22.5748 32.1892 22.5632L6.81368 22.1895Z" fill="#2A2F3A"/>
</svg>
