<svg width="39" height="50" viewBox="0 0 39 50" fill="none" xmlns="http://www.w3.org/2000/svg">
<path fill-rule="evenodd" clip-rule="evenodd" d="M22.6853 0C23.7307 0 24.5782 0.838903 24.5782 1.87374V14.6949C24.5782 15.7297 25.4256 16.5686 26.471 16.5686H37.1071C38.1525 16.5686 39 17.4075 39 18.4424V48.1263C39 49.1611 38.1525 50 37.1071 50H1.89287C0.847468 50 2.70056e-08 49.1611 0 48.1263V1.87374C0 0.838905 0.847468 2.99044e-06 1.89287 0H22.6853ZM6.81368 32.3309C6.02971 32.3194 5.38416 32.9392 5.37184 33.7152C5.35955 34.4912 5.9851 35.1296 6.76903 35.1412L32.1446 35.515C32.9286 35.5266 33.5741 34.9068 33.5864 34.1307C33.5987 33.3547 32.9731 32.7163 32.1892 32.7048L6.81368 32.3309ZM6.81368 22.1895C6.02972 22.1779 5.38417 22.7976 5.37184 23.5737C5.35953 24.3497 5.98508 24.9882 6.76903 24.9997L32.1446 25.3736C32.9286 25.3851 33.5741 24.7653 33.5864 23.9893C33.5987 23.2133 32.9732 22.5748 32.1892 22.5632L6.81368 22.1895ZM11.3639 11.0551C10.6927 11.0551 10.0281 11.1908 9.40805 11.4544C8.78799 11.7181 8.22461 12.1046 7.75003 12.5918C7.27547 13.0789 6.89897 13.6573 6.64213 14.2938C6.4904 14.6698 6.38219 15.0619 6.31902 15.4618C6.24635 15.9218 6.63448 16.3016 7.10491 16.3016H15.6228C16.0932 16.3016 16.4814 15.9218 16.4087 15.4618C16.3455 15.0619 16.2373 14.6698 16.0856 14.2938C15.8287 13.6573 15.4522 13.0789 14.9777 12.5918C14.5031 12.1046 13.9397 11.7181 13.3197 11.4544C12.6996 11.1908 12.035 11.0551 11.3639 11.0551ZM10.9824 5.59753C9.67569 5.59755 8.61635 6.64618 8.61634 7.93971C8.61634 9.23325 9.67568 10.2819 10.9824 10.2819C12.2892 10.2819 13.3485 9.23326 13.3485 7.93971C13.3485 6.64617 12.2892 5.59753 10.9824 5.59753Z" fill="#2A2F3A"/>
<path d="M29.346 13.6022C28.3006 13.6022 27.4531 12.7633 27.4531 11.7285V5.14649C27.4531 3.39733 29.6597 2.60207 30.7958 3.94179L36.3774 10.5238C37.4112 11.743 36.5356 13.6022 34.9276 13.6022H29.346Z" fill="#2A2F3A"/>
</svg>
